<svg width="24" height="25" viewBox="0 0 24 25" fill="none" xmlns="http://www.w3.org/2000/svg">
<path d="M21.091 7.89799C20.241 6.95799 18.821 6.48799 16.761 6.48799H16.521V6.44799C16.521 4.76799 16.521 2.68799 12.761 2.68799H11.241C7.48101 2.68799 7.48101 4.77799 7.48101 6.44799V6.49799H7.24101C5.17101 6.49799 3.76101 6.96799 2.91101 7.90799C1.92101 9.00799 1.95101 10.488 2.05101 11.498L2.06101 11.568L2.13801 12.381C2.15301 12.531 2.23301 12.666 2.35901 12.748C2.59901 12.905 3.00001 13.164 3.24101 13.298C3.38101 13.388 3.53101 13.468 3.68101 13.548C5.39101 14.488 7.27101 15.118 9.18101 15.428C9.27101 16.368 9.68101 17.468 11.871 17.468C14.061 17.468 14.491 16.378 14.561 15.408C16.601 15.078 18.571 14.368 20.351 13.328C20.411 13.298 20.451 13.268 20.501 13.238C20.898 13.013 21.309 12.737 21.684 12.466C21.7398 12.4256 21.7866 12.3739 21.8212 12.3143C21.8558 12.2547 21.8776 12.1885 21.885 12.12L21.901 11.977L21.951 11.507C21.961 11.447 21.961 11.397 21.971 11.327C22.051 10.317 22.031 8.93799 21.091 7.89799ZM13.091 14.748C13.091 15.808 13.091 15.968 11.861 15.968C10.631 15.968 10.631 15.778 10.631 14.758V13.498H13.091V14.748ZM8.91101 6.48799V6.44799C8.91101 4.74799 8.91101 4.11799 11.241 4.11799H12.761C15.091 4.11799 15.091 4.75799 15.091 6.44799V6.49799H8.91101V6.48799Z" fill="#475467"/>
<path d="M20.8729 14.6529C20.9538 14.6145 21.0433 14.598 21.1326 14.6052C21.2218 14.6123 21.3076 14.6429 21.3812 14.6939C21.4548 14.7448 21.5137 14.8142 21.552 14.8952C21.5902 14.9761 21.6064 15.0657 21.5989 15.1549L21.2389 19.1089C21.0289 21.1089 20.2089 23.1489 15.8089 23.1489H8.18994C3.78995 23.1489 2.96995 21.1089 2.75995 19.1189L2.41995 15.3709C2.41238 15.2826 2.42805 15.1938 2.46541 15.1135C2.50277 15.0331 2.56052 14.9639 2.63291 14.9127C2.7053 14.8615 2.78982 14.8302 2.87807 14.8218C2.96631 14.8135 3.05522 14.8283 3.13595 14.8649C4.27595 15.3809 6.37795 16.2949 7.67695 16.6349C7.75802 16.6569 7.83323 16.6966 7.89719 16.751C7.96116 16.8055 8.01229 16.8734 8.04695 16.9499C8.65394 18.2479 9.96994 18.9389 11.8709 18.9389C13.7529 18.9389 15.0859 18.2209 15.6949 16.9199C15.7297 16.8434 15.7808 16.7756 15.8448 16.7211C15.9087 16.6667 15.9839 16.627 16.0649 16.6049C17.4439 16.2419 19.6829 15.2199 20.8749 14.6529H20.8729Z" fill="#475467"/>
</svg>
