<svg width="25" height="25" viewBox="0 0 25 25" fill="none" xmlns="http://www.w3.org/2000/svg">
<path d="M21.4243 7.8975C20.5743 6.9575 19.1543 6.4875 17.0943 6.4875H16.8543V6.4475C16.8543 4.7675 16.8543 2.6875 13.0943 2.6875H11.5743C7.81427 2.6875 7.81427 4.7775 7.81427 6.4475V6.4975H7.57427C5.50427 6.4975 4.09427 6.9675 3.24427 7.9075C2.25427 9.0075 2.28427 10.4875 2.38427 11.4975L2.39427 11.5675L2.47127 12.3805C2.48627 12.5305 2.56627 12.6655 2.69227 12.7475C2.93227 12.9045 3.33327 13.1635 3.57427 13.2975C3.71427 13.3875 3.86427 13.4675 4.01427 13.5475C5.72427 14.4875 7.60427 15.1175 9.51427 15.4275C9.60427 16.3675 10.0143 17.4675 12.2043 17.4675C14.3943 17.4675 14.8243 16.3775 14.8943 15.4075C16.9343 15.0775 18.9043 14.3675 20.6843 13.3275C20.7443 13.2975 20.7843 13.2675 20.8343 13.2375C21.2313 13.0125 21.6423 12.7365 22.0173 12.4655C22.0731 12.4251 22.1198 12.3734 22.1544 12.3138C22.1891 12.2542 22.2108 12.188 22.2183 12.1195L22.2343 11.9765L22.2843 11.5065C22.2943 11.4465 22.2943 11.3965 22.3043 11.3265C22.3843 10.3165 22.3643 8.9375 21.4243 7.8975ZM13.4243 14.7475C13.4243 15.8075 13.4243 15.9675 12.1943 15.9675C10.9643 15.9675 10.9643 15.7775 10.9643 14.7575V13.4975H13.4243V14.7475ZM9.24427 6.4875V6.4475C9.24427 4.7475 9.24427 4.1175 11.5743 4.1175H13.0943C15.4243 4.1175 15.4243 4.7575 15.4243 6.4475V6.4975H9.24427V6.4875Z" fill="black"/>
<path d="M21.2063 14.6529C21.2872 14.6145 21.3767 14.598 21.4659 14.6052C21.5552 14.6123 21.6409 14.6429 21.7146 14.6939C21.7882 14.7448 21.8471 14.8142 21.8853 14.8952C21.9236 14.9761 21.9398 15.0657 21.9323 15.1549L21.5723 19.1089C21.3623 21.1089 20.5423 23.1489 16.1423 23.1489H8.52332C4.12332 23.1489 3.30332 21.1089 3.09332 19.1189L2.75332 15.3709C2.74575 15.2826 2.76143 15.1938 2.79879 15.1135C2.83615 15.0331 2.89389 14.9639 2.96628 14.9127C3.03867 14.8615 3.12319 14.8302 3.21144 14.8218C3.29969 14.8135 3.38859 14.8283 3.46932 14.8649C4.60932 15.3809 6.71132 16.2949 8.01032 16.6349C8.09139 16.6569 8.1666 16.6966 8.23057 16.751C8.29453 16.8055 8.34567 16.8734 8.38032 16.9499C8.98732 18.2479 10.3033 18.9389 12.2043 18.9389C14.0863 18.9389 15.4193 18.2209 16.0283 16.9199C16.063 16.8434 16.1142 16.7756 16.1781 16.7211C16.2421 16.6667 16.3173 16.627 16.3983 16.6049C17.7773 16.2419 20.0163 15.2199 21.2083 14.6529H21.2063Z" fill="black"/>
</svg>
