<svg width="24" height="25" viewBox="0 0 24 25" fill="none" xmlns="http://www.w3.org/2000/svg">
<path d="M20.97 16.918H18.03C16.76 16.918 16 17.678 16 18.948V21.888C16 23.158 16.76 23.918 18.03 23.918H20.97C22.24 23.918 23 23.158 23 21.888V18.948C23 17.678 22.24 16.918 20.97 16.918ZM21.63 19.368L19.26 22.138C19.2131 22.1933 19.1549 22.2379 19.0894 22.269C19.0239 22.3 18.9525 22.3167 18.88 22.318H18.86C18.73 22.318 18.59 22.268 18.5 22.168L17.4 21.088C17.2 20.888 17.2 20.558 17.4 20.348C17.6 20.148 17.93 20.148 18.14 20.348L18.83 21.038L20.84 18.698C21.02 18.478 21.35 18.448 21.57 18.638C21.79 18.828 21.81 19.158 21.63 19.368Z" fill="black"/>
<path d="M20.97 16.918H18.03C16.76 16.918 16 17.678 16 18.948V21.888C16 23.158 16.76 23.918 18.03 23.918H20.97C22.24 23.918 23 23.158 23 21.888V18.948C23 17.678 22.24 16.918 20.97 16.918ZM21.63 19.368L19.26 22.138C19.2131 22.1933 19.1549 22.2379 19.0894 22.269C19.0239 22.3 18.9525 22.3167 18.88 22.318H18.86C18.73 22.318 18.59 22.268 18.5 22.168L17.4 21.088C17.2 20.888 17.2 20.558 17.4 20.348C17.6 20.148 17.93 20.148 18.14 20.348L18.83 21.038L20.84 18.698C21.02 18.478 21.35 18.448 21.57 18.638C21.79 18.828 21.81 19.158 21.63 19.368Z" fill="black"/>
<path d="M21.97 8.12797C21.8211 6.69862 21.148 5.37509 20.0806 4.41292C19.0131 3.45074 17.6271 2.91815 16.19 2.91797H7.81C6.26925 2.9185 4.79177 3.53079 3.7023 4.62026C2.61282 5.70974 2.00053 7.18722 2 8.72797V17.108C2.00053 18.6487 2.61282 20.1262 3.7023 21.2157C4.79177 22.3051 6.26925 22.9174 7.81 22.918H14C14.55 22.918 15 22.468 15 21.918V18.948C15 17.278 16.36 15.918 18.03 15.918H21C21.55 15.918 22 15.468 22 14.918V8.72797C22 8.52797 21.99 8.32797 21.97 8.12797ZM7.75 14.418C7.75 14.828 7.41 15.168 7 15.168C6.59 15.168 6.25 14.828 6.25 14.418V11.418C6.25 11.008 6.59 10.668 7 10.668C7.41 10.668 7.75 11.008 7.75 11.418V14.418ZM12.75 14.418C12.75 14.828 12.41 15.168 12 15.168C11.59 15.168 11.25 14.828 11.25 14.418V11.418C11.25 11.008 11.59 10.668 12 10.668C12.41 10.668 12.75 11.008 12.75 11.418V14.418Z" fill="black"/>
</svg>
