<svg width="22" height="24" viewBox="0 0 22 24" fill="none" xmlns="http://www.w3.org/2000/svg">
<path d="M19.7639 4.74313L12.8339 0.741465C11.7023 0.0881315 10.3023 0.0881315 9.15894 0.741465L2.24061 4.74313C1.68268 5.06662 1.2197 5.53123 0.898181 6.0903C0.576665 6.64937 0.407935 7.28321 0.40894 7.92813V15.9081C0.40894 17.2148 1.10894 18.4281 2.24061 19.0931L9.17061 23.0948C10.3023 23.7481 11.7023 23.7481 12.8456 23.0948L19.7756 19.0931C20.3335 18.7696 20.7965 18.305 21.118 17.746C21.4396 17.1869 21.6083 16.5531 21.6073 15.9081V7.92813C21.6022 7.28306 21.4296 6.65036 21.1065 6.09204C20.7834 5.53371 20.3207 5.06889 19.7639 4.74313ZM11.0023 6.48147C12.5073 6.48147 13.7206 7.6948 13.7206 9.1998C13.7206 10.7048 12.5073 11.9181 11.0023 11.9181C9.49727 11.9181 8.28394 10.7048 8.28394 9.1998C8.28394 7.70647 9.49727 6.48147 11.0023 6.48147ZM14.1289 17.3548H7.87561C6.93061 17.3548 6.38227 16.3048 6.90727 15.5231C7.70061 14.3448 9.24061 13.5515 11.0023 13.5515C12.7639 13.5515 14.3039 14.3448 15.0973 15.5231C15.6223 16.2931 15.0623 17.3548 14.1289 17.3548Z" fill="#E5B80B"/>
</svg>
