<svg width="28" height="29" viewBox="0 0 28 29" fill="none" xmlns="http://www.w3.org/2000/svg">
<path d="M18.1883 15.3846V20.133C18.1883 20.553 18.1416 20.9496 18.0366 21.3113C17.6049 23.0263 16.1816 24.0996 14.2216 24.0996H11.0483L7.52492 26.4446C7.40681 26.5255 7.26879 26.5724 7.12588 26.5803C6.98296 26.5882 6.84062 26.5568 6.71433 26.4894C6.58803 26.422 6.48262 26.3213 6.40956 26.1983C6.3365 26.0752 6.29857 25.9344 6.29992 25.7913V24.0996C5.10992 24.0996 4.11825 23.703 3.42992 23.0146C2.72992 22.3146 2.33325 21.323 2.33325 20.133V15.3846C2.33325 13.168 3.70992 11.6396 5.83325 11.4413C5.98492 11.4296 6.13659 11.418 6.29992 11.418H14.2216C16.6016 11.418 18.1883 13.0046 18.1883 15.3846Z" fill="#E5B80B"/>
<path d="M20.7083 19.1181C22.1899 19.1181 23.4383 18.6281 24.3016 17.7531C25.1766 16.8898 25.6666 15.6415 25.6666 14.1598V8.2098C25.6666 5.46813 23.4499 3.25146 20.7083 3.25146H10.7916C8.04992 3.25146 5.83325 5.46813 5.83325 8.2098V9.0848C5.83325 9.41147 6.08992 9.66813 6.41659 9.66813H14.2216C17.3833 9.66813 19.9383 12.2231 19.9383 15.3848V18.5348C19.9383 18.8615 20.1949 19.1181 20.5216 19.1181H20.7083Z" fill="#E5B80B"/>
</svg>
