<svg width="25" height="25" viewBox="0 0 25 25" fill="none" xmlns="http://www.w3.org/2000/svg">
<path d="M3.37659 17.9382L5.11659 14.4582C5.59659 13.4882 5.59659 12.3582 5.11659 11.3882L3.37659 7.89819C1.88659 4.91819 5.09659 1.76819 8.04659 3.32819L9.58659 4.14819C9.80659 4.25819 9.97659 4.43819 10.0666 4.65819L15.7566 17.3082C15.9866 17.8282 15.7766 18.4382 15.2766 18.6982L8.03659 22.5082C5.09659 24.0682 1.88659 20.9182 3.37659 17.9382ZM16.9766 16.5182L13.2466 8.23819C12.8266 7.30819 13.8266 6.36819 14.7266 6.84819L20.4966 9.88819C22.9466 11.1782 22.9466 14.6782 20.4966 15.9682L18.4566 17.0382C17.9066 17.3182 17.2366 17.0882 16.9766 16.5182Z" fill="black"/>
</svg>
