<svg width="24" height="24" viewBox="0 0 24 24" fill="none" xmlns="http://www.w3.org/2000/svg">
<path d="M22.7916 19.4665L20.8666 19.9215C20.4349 20.0265 20.0966 20.3531 20.0033 20.7848L19.5949 22.4998C19.3733 23.4331 18.1833 23.7248 17.5649 22.9898L14.0766 18.9765C14.0117 18.9017 13.9669 18.8117 13.9464 18.7148C13.926 18.618 13.9305 18.5175 13.9597 18.4229C13.9889 18.3283 14.0418 18.2427 14.1133 18.1742C14.1848 18.1057 14.2725 18.0566 14.3683 18.0315C16.4392 17.528 18.2926 16.3702 19.6533 14.7298C19.8749 14.4615 20.2716 14.4265 20.5166 14.6715L23.1066 17.2615C23.9933 18.1481 23.6783 19.2565 22.7916 19.4665ZM1.14995 19.4665L3.07495 19.9215C3.50661 20.0265 3.84495 20.3531 3.93828 20.7848L4.34661 22.4998C4.56828 23.4331 5.75828 23.7248 6.37661 22.9898L9.86495 18.9765C10.1449 18.6498 9.99328 18.1365 9.57328 18.0315C7.50234 17.528 5.64896 16.3702 4.28828 14.7298C4.2379 14.6656 4.17459 14.6128 4.10247 14.5746C4.03034 14.5365 3.951 14.5139 3.8696 14.5084C3.7882 14.5029 3.70655 14.5146 3.62994 14.5427C3.55334 14.5708 3.4835 14.6146 3.42495 14.6715L0.834946 17.2615C-0.0517209 18.1481 0.263279 19.2565 1.14995 19.4665ZM11.9999 0.251465C7.48495 0.251465 3.83328 3.90313 3.83328 8.41813C3.83328 10.1098 4.33495 11.6615 5.19828 12.9565C5.8309 13.9 6.65381 14.7009 7.61418 15.3076C8.57455 15.9144 9.65117 16.3136 10.7749 16.4798C11.1716 16.5498 11.5799 16.5848 11.9999 16.5848C12.4199 16.5848 12.8283 16.5498 13.2249 16.4798C15.5466 16.1415 17.5416 14.8231 18.8016 12.9565C19.6973 11.6128 20.1725 10.0329 20.1666 8.41813C20.1666 3.90313 16.5149 0.251465 11.9999 0.251465ZM15.5699 8.16147L14.6016 9.1298C14.4383 9.29313 14.3449 9.60813 14.4033 9.84147L14.6833 11.0431C14.9049 11.9881 14.4033 12.3615 13.5633 11.8598L12.3966 11.1715C12.2781 11.1082 12.1459 11.0752 12.0116 11.0752C11.8773 11.0752 11.7451 11.1082 11.6266 11.1715L10.4599 11.8598C9.61995 12.3498 9.11828 11.9881 9.33995 11.0431L9.61995 9.84147C9.66661 9.6198 9.58495 9.29313 9.42161 9.1298L8.42995 8.16147C7.85828 7.5898 8.04495 7.01813 8.83828 6.8898L10.0866 6.6798C10.2966 6.6448 10.5416 6.45813 10.6349 6.27147L11.3233 4.8948C11.6966 4.14813 12.3033 4.14813 12.6766 4.8948L13.3649 6.27147C13.4583 6.45813 13.7033 6.6448 13.9249 6.6798L15.1733 6.8898C15.9549 7.01813 16.1416 7.5898 15.5699 8.16147Z" fill="#E5B80B"/>
</svg>
