<svg width="24" height="25" viewBox="0 0 24 25" fill="none" xmlns="http://www.w3.org/2000/svg">
<path d="M7.649 21.828C7.619 21.828 7.579 21.848 7.549 21.848C5.609 20.888 4.029 19.298 3.059 17.358C3.059 17.328 3.079 17.288 3.079 17.258C4.299 17.618 5.559 17.888 6.809 18.098C7.029 19.358 7.289 20.608 7.649 21.828ZM20.94 17.368C19.95 19.358 18.3 20.968 16.29 21.938C16.67 20.668 16.99 19.388 17.2 18.098C18.46 17.888 19.7 17.618 20.92 17.258C20.91 17.298 20.94 17.338 20.94 17.368ZM21.02 8.62797C19.76 8.24797 18.49 7.93797 17.2 7.71797C16.99 6.42797 16.68 5.14797 16.29 3.89797C18.36 4.88797 20.03 6.55797 21.02 8.62797ZM7.65 4.00697C7.29 5.22697 7.03 6.46697 6.82 7.72697C5.53 7.92697 4.25 8.24697 2.98 8.62697C3.95 6.61697 5.56 4.96697 7.55 3.97697C7.58 3.97697 7.62 4.00697 7.65 4.00697ZM15.492 7.50797C13.172 7.24797 10.832 7.24797 8.512 7.50797C8.762 6.13797 9.082 4.76797 9.532 3.44797C9.552 3.36797 9.542 3.30797 9.552 3.22797C10.342 3.03797 11.152 2.91797 12.002 2.91797C12.842 2.91797 13.662 3.03797 14.442 3.22797C14.452 3.30797 14.452 3.36797 14.472 3.44797C14.922 4.77797 15.242 6.13797 15.492 7.50797ZM6.59 16.41C5.21 16.16 3.85 15.84 2.53 15.39C2.45 15.37 2.39 15.38 2.31 15.37C2.12 14.58 2 13.77 2 12.92C2 12.08 2.12 11.26 2.31 10.48C2.39 10.47 2.45 10.47 2.53 10.45C3.86 10.01 5.21 9.67997 6.59 9.42997C6.34 11.75 6.34 14.09 6.59 16.41ZM22 12.92C22 13.77 21.88 14.58 21.69 15.37C21.61 15.38 21.55 15.37 21.47 15.39C20.14 15.83 18.78 16.16 17.41 16.41C17.67 14.09 17.67 11.75 17.41 9.42997C18.78 9.67997 20.15 9.99997 21.47 10.45C21.55 10.47 21.61 10.48 21.69 10.48C21.88 11.27 22 12.08 22 12.92ZM15.492 18.328C15.242 19.708 14.922 21.068 14.472 22.388C14.452 22.468 14.452 22.528 14.442 22.608C13.662 22.798 12.842 22.918 12.002 22.918C11.152 22.918 10.342 22.798 9.552 22.608C9.542 22.528 9.552 22.468 9.532 22.388C9.09715 21.0602 8.75631 19.7036 8.512 18.328C9.672 18.458 10.832 18.548 12.002 18.548C13.172 18.548 14.342 18.458 15.492 18.328ZM15.763 16.681C13.2643 16.9965 10.7357 16.9965 8.237 16.681C7.9215 14.1822 7.9215 11.6537 8.237 9.15497C10.7357 8.83946 13.2643 8.83946 15.763 9.15497C16.0785 11.6537 16.0785 14.1822 15.763 16.681Z" fill="#475467"/>
</svg>
