<svg width="28" height="29" viewBox="0 0 28 29" fill="none" xmlns="http://www.w3.org/2000/svg">
<path d="M24.4534 21.7288L22.5517 22.3704C22.0267 22.5454 21.6067 22.9538 21.4317 23.4904L20.79 25.3921C20.2417 27.0371 17.9317 27.0021 17.4184 25.3571L15.26 18.4154C14.84 17.0388 16.1117 15.7554 17.4767 16.1871L24.43 18.3454C26.0634 18.8588 26.0867 21.1804 24.4534 21.7288Z" fill="#E5B80B"/>
<path d="M24.4999 14.3348C24.4999 14.8364 24.4649 15.3381 24.4066 15.8281C24.3599 16.1781 23.9982 16.3881 23.6599 16.2831L18.0016 14.5214C17.3895 14.3307 16.737 14.3103 16.1142 14.4624C15.4914 14.6145 14.9218 14.9334 14.4666 15.3848C13.5332 16.3181 13.1949 17.6831 13.5916 18.9431L15.3416 24.5781C15.4466 24.9164 15.2249 25.2781 14.8749 25.3248C14.3849 25.3831 13.9066 25.4181 13.4166 25.4181C7.18656 25.4181 2.16989 20.2964 2.33322 14.0198C2.49656 8.2331 7.31489 3.41477 13.1016 3.25144C19.3782 3.0881 24.4999 8.10477 24.4999 14.3348Z" fill="#E5B80B"/>
</svg>
