<svg width="20" height="24" viewBox="0 0 20 24" fill="none" xmlns="http://www.w3.org/2000/svg">
<path d="M18.4117 5.3392C17.1983 2.8892 14.8533 1.08087 12.135 0.485869C9.28832 -0.144131 6.37166 0.532535 4.14332 2.3292C3.04342 3.204 2.15603 4.31666 1.54782 5.5836C0.939603 6.85055 0.626374 8.23884 0.631658 9.6442C0.631658 12.6659 2.43999 15.8275 5.16999 17.6592V18.6275C5.15832 18.9542 5.14666 19.4559 5.54333 19.8642C5.95166 20.2842 6.55832 20.3309 7.03666 20.3309H13.0217C13.6517 20.3309 14.13 20.1559 14.4567 19.8292C14.9 19.3742 14.8883 18.7909 14.8767 18.4759V17.6592C18.4933 15.2209 20.7683 10.0759 18.4117 5.3392ZM13.8033 23.5824C13.7333 23.5824 13.6517 23.5707 13.5817 23.5474C11.2367 22.8824 8.77499 22.8824 6.42999 23.5474C5.99832 23.664 5.54332 23.419 5.42666 22.9874C5.39651 22.8847 5.38712 22.7771 5.39905 22.6708C5.41097 22.5645 5.44397 22.4616 5.49611 22.3682C5.54825 22.2748 5.61848 22.1927 5.70271 22.1267C5.78694 22.0608 5.88347 22.0123 5.98666 21.984C8.62333 21.2374 11.4 21.2374 14.0367 21.984C14.4683 22.1124 14.725 22.5557 14.5967 22.9874C14.48 23.349 14.1533 23.5824 13.8033 23.5824Z" fill="#E5B80B"/>
</svg>
