<svg width="24" height="24" viewBox="0 0 24 24" fill="none" xmlns="http://www.w3.org/2000/svg">
<path d="M7.78825 19.4898V7.63648C7.78825 7.16981 7.92825 6.71481 8.18492 6.32981L11.3699 1.59314C11.8716 0.83481 13.1199 0.298143 14.1816 0.69481C15.3249 1.07981 16.0833 2.36314 15.8383 3.50648L15.2316 7.32148C15.1849 7.67148 15.2783 7.98648 15.4766 8.23148C15.6749 8.45314 15.9666 8.59314 16.2816 8.59314H21.0766C21.9983 8.59314 22.7916 8.96648 23.2583 9.61981C23.7016 10.2498 23.7833 11.0665 23.4916 11.8948L20.6216 20.6331C20.2599 22.0798 18.6849 23.2581 17.1216 23.2581H12.5716C11.7899 23.2581 10.6933 22.9898 10.1916 22.4881L8.69825 21.3331C8.12659 20.9015 7.78825 20.2131 7.78825 19.4898ZM4.07825 5.36031H2.87658C1.06825 5.36031 0.333252 6.06031 0.333252 7.78698V19.5236C0.333252 21.2503 1.06825 21.9503 2.87658 21.9503H4.07825C5.88659 21.9503 6.62158 21.2503 6.62158 19.5236V7.78698C6.62158 6.06031 5.88659 5.36031 4.07825 5.36031Z" fill="#E5B80B"/>
</svg>
