<?xml version="1.0" encoding="UTF-8" standalone="no"?><!DOCTYPE svg PUBLIC "-//W3C//DTD SVG 1.1//EN" "http://www.w3.org/Graphics/SVG/1.1/DTD/svg11.dtd"><svg width="100%" height="100%" viewBox="0 0 421 451" version="1.1" xmlns="http://www.w3.org/2000/svg" xmlns:xlink="http://www.w3.org/1999/xlink" xml:space="preserve" xmlns:serif="http://www.serif.com/" style="fill-rule:evenodd;clip-rule:evenodd;stroke-linejoin:round;stroke-miterlimit:2;"><g><g><g><path d="M243.105,98.695c15.686,-30.438 47.303,-50.391 82.666,-50.391c24.898,-0 49.167,10.235 66.583,28.082l6.537,6.699l19.69,-36.858l-3.991,-3.59c-24.445,-21.988 -55.989,-34.097 -88.819,-34.097c-25.228,0 -49.787,7.136 -71.028,20.64c-12.591,8.003 -23.674,18.018 -32.87,29.57l21.232,39.945Z" style="fill-rule:nonzero;"/><path d="M123.782,186.439l22.511,-42.394l22.517,42.406l-22.501,42.415l-22.527,-42.427Z" style="fill:#010100;fill-rule:nonzero;"/><path d="M325.771,274.077c-43.971,0 -85.601,-22.353 -110.165,-58.74c-0,-0 -8.085,-13.594 -9.586,-16.72l-60.445,-113.833l-100.583,189.293l-44.949,0l145.533,-274.077l99.922,188.18c16.682,28.462 47.427,46.135 80.273,46.135c25.706,-0 50.513,-10.798 68.062,-29.626l6.537,-7.013l19.82,37.105l-3.854,3.594c-24.69,23.024 -56.855,35.702 -90.565,35.702Z" style="fill:#e5b80b;fill-rule:nonzero;"/></g></g><g><g transform="matrix(1,0,-0.0354386,1,-140.871,-2.27374e-12)"><text x="154.333px" y="447.927px" style="font-family:'Lufga-SemiBold', 'Lufga';font-weight:600;font-size:214.793px;">A<tspan x="298.438px " y="447.927px ">C</tspan>E</text></g></g></g></svg>