<svg width="24" height="25" viewBox="0 0 24 25" fill="none" xmlns="http://www.w3.org/2000/svg">
<path d="M8.99996 2.91797C6.37996 2.91797 4.24996 5.04797 4.24996 7.66797C4.24996 10.238 6.25996 12.318 8.87996 12.408C8.95996 12.398 9.03996 12.398 9.09996 12.408H9.16996C10.3993 12.367 11.5645 11.8494 12.4192 10.9649C13.274 10.0803 13.7512 8.89801 13.75 7.66797C13.75 5.04797 11.62 2.91797 8.99996 2.91797ZM14.08 15.067C11.29 13.207 6.73996 13.207 3.92996 15.067C2.65996 15.917 1.95996 17.067 1.95996 18.297C1.95996 19.527 2.65996 20.667 3.91996 21.507C5.31996 22.447 7.15996 22.917 8.99996 22.917C10.84 22.917 12.68 22.447 14.08 21.507C15.34 20.657 16.04 19.517 16.04 18.277C16.03 17.047 15.34 15.907 14.08 15.067ZM19.99 8.25597C20.15 10.196 18.77 11.896 16.86 12.126H16.81C16.75 12.126 16.69 12.126 16.64 12.146C15.67 12.196 14.78 11.886 14.11 11.316C15.14 10.396 15.73 9.01597 15.61 7.51597C15.5413 6.73597 15.2765 5.98603 14.84 5.33597C15.3639 5.08105 15.9421 4.95744 16.5245 4.97579C17.1069 4.99414 17.6761 5.15392 18.183 5.44132C18.6899 5.72873 19.1193 6.13514 19.4341 6.6255C19.7489 7.11585 19.9397 7.67544 19.99 8.25597Z" fill="#475467"/>
<path d="M21.988 17.5079C21.908 18.4779 21.288 19.3179 20.248 19.8879C19.248 20.4379 17.988 20.6979 16.738 20.6679C17.458 20.0179 17.878 19.2079 17.958 18.3479C18.058 17.1079 17.468 15.9179 16.288 14.9679C15.618 14.4379 14.838 14.0179 13.988 13.7079C16.198 13.0679 18.978 13.4979 20.688 14.8779C21.608 15.6179 22.078 16.5479 21.988 17.5079Z" fill="#475467"/>
</svg>
