<svg width="24" height="25" viewBox="0 0 24 25" fill="none" xmlns="http://www.w3.org/2000/svg">
<path d="M21.25 19.388L19.6 19.778C19.23 19.868 18.94 20.148 18.86 20.518L18.51 21.988C18.32 22.788 17.3 23.038 16.77 22.408L13.78 18.968C13.7244 18.9039 13.686 18.8267 13.6684 18.7437C13.6509 18.6607 13.6548 18.5746 13.6799 18.4935C13.7049 18.4124 13.7502 18.339 13.8115 18.2803C13.8727 18.2216 13.948 18.1795 14.03 18.158C15.8051 17.7264 17.3937 16.734 18.56 15.328C18.75 15.098 19.09 15.068 19.3 15.278L21.52 17.498C22.28 18.258 22.01 19.208 21.25 19.388ZM2.70004 19.388L4.35004 19.778C4.72004 19.868 5.01004 20.148 5.09004 20.518L5.44004 21.988C5.63004 22.788 6.65004 23.038 7.18004 22.408L10.17 18.968C10.41 18.688 10.28 18.248 9.92004 18.158C8.14495 17.7264 6.55634 16.734 5.39004 15.328C5.34686 15.273 5.2926 15.2276 5.23077 15.195C5.16895 15.1623 5.10095 15.1429 5.03117 15.1382C4.9614 15.1335 4.89141 15.1435 4.82575 15.1676C4.7601 15.1917 4.70023 15.2293 4.65004 15.278L2.43004 17.498C1.67004 18.258 1.94004 19.208 2.70004 19.388ZM12 2.91797C8.13004 2.91797 5.00004 6.04797 5.00004 9.91797C5.00004 11.368 5.43004 12.698 6.17004 13.808C6.71229 14.6167 7.41763 15.3032 8.24081 15.8232C9.06399 16.3433 9.98681 16.6856 10.95 16.828C11.29 16.888 11.64 16.918 12 16.918C12.36 16.918 12.71 16.888 13.05 16.828C15.04 16.538 16.75 15.408 17.83 13.808C18.5977 12.6563 19.005 11.3021 19 9.91797C19 6.04797 15.87 2.91797 12 2.91797ZM15.06 9.69797L14.23 10.528C14.09 10.668 14.01 10.938 14.06 11.138L14.3 12.168C14.49 12.978 14.06 13.298 13.34 12.868L12.34 12.278C12.2385 12.2238 12.1251 12.1954 12.01 12.1954C11.8949 12.1954 11.7816 12.2238 11.68 12.278L10.68 12.868C9.96004 13.288 9.53004 12.978 9.72004 12.168L9.96004 11.138C10 10.948 9.93004 10.668 9.79004 10.528L8.94004 9.69797C8.45004 9.20797 8.61004 8.71797 9.29004 8.60797L10.36 8.42797C10.54 8.39797 10.75 8.23797 10.83 8.07797L11.42 6.89797C11.74 6.25797 12.26 6.25797 12.58 6.89797L13.17 8.07797C13.25 8.23797 13.46 8.39797 13.65 8.42797L14.72 8.60797C15.39 8.71797 15.55 9.20797 15.06 9.69797Z" fill="#475467"/>
</svg>
