<svg width="22" height="22" viewBox="0 0 22 22" fill="none" xmlns="http://www.w3.org/2000/svg">
<path fill-rule="evenodd" clip-rule="evenodd" d="M7.99995 3.41797C8.16291 3.418 8.32143 3.47111 8.45152 3.56927C8.58161 3.66742 8.67619 3.80527 8.72095 3.96197L9.53395 6.80797C9.709 7.42089 10.0374 7.97907 10.4881 8.4298C10.9388 8.88052 11.497 9.20892 12.1099 9.38397L14.9559 10.197C15.1125 10.2418 15.2503 10.3364 15.3483 10.4665C15.4464 10.5966 15.4994 10.7551 15.4994 10.918C15.4994 11.0809 15.4464 11.2393 15.3483 11.3694C15.2503 11.4995 15.1125 11.5941 14.9559 11.639L12.1099 12.452C11.497 12.627 10.9388 12.9554 10.4881 13.4061C10.0374 13.8569 9.709 14.4151 9.53395 15.028L8.72095 17.874C8.67609 18.0306 8.58147 18.1683 8.45139 18.2663C8.32131 18.3644 8.16284 18.4174 7.99995 18.4174C7.83705 18.4174 7.67859 18.3644 7.54851 18.2663C7.41843 18.1683 7.32381 18.0306 7.27895 17.874L6.46595 15.028C6.2909 14.4151 5.9625 13.8569 5.51178 13.4061C5.06105 12.9554 4.50287 12.627 3.88995 12.452L1.04395 11.639C0.887353 11.5941 0.749619 11.4995 0.65157 11.3694C0.553522 11.2393 0.500488 11.0809 0.500488 10.918C0.500488 10.7551 0.553522 10.5966 0.65157 10.4665C0.749619 10.3364 0.887353 10.2418 1.04395 10.197L3.88995 9.38397C4.50287 9.20892 5.06105 8.88052 5.51178 8.4298C5.9625 7.97907 6.2909 7.42089 6.46595 6.80797L7.27895 3.96197C7.32371 3.80527 7.41829 3.66742 7.54838 3.56927C7.67847 3.47111 7.83698 3.418 7.99995 3.41797ZM16.9999 0.417969C17.1673 0.417876 17.3298 0.473733 17.4617 0.576655C17.5936 0.679577 17.6873 0.823655 17.7279 0.985969L17.9859 2.02197C18.2219 2.96197 18.9559 3.69597 19.8959 3.93197L20.9319 4.18997C21.0946 4.23025 21.239 4.32382 21.3423 4.45577C21.4455 4.58771 21.5016 4.75043 21.5016 4.91797C21.5016 5.08551 21.4455 5.24823 21.3423 5.38017C21.239 5.51211 21.0946 5.60569 20.9319 5.64597L19.8959 5.90397C18.9559 6.13997 18.2219 6.87397 17.9859 7.81397L17.7279 8.84997C17.6877 9.01259 17.5941 9.15705 17.4621 9.2603C17.3302 9.36355 17.1675 9.41965 16.9999 9.41965C16.8324 9.41965 16.6697 9.36355 16.5377 9.2603C16.4058 9.15705 16.3122 9.01259 16.2719 8.84997L16.0139 7.81397C15.8986 7.3524 15.6599 6.93087 15.3235 6.59444C14.987 6.25802 14.5655 6.01936 14.1039 5.90397L13.0679 5.64597C12.9053 5.60569 12.7609 5.51211 12.6576 5.38017C12.5544 5.24823 12.4983 5.08551 12.4983 4.91797C12.4983 4.75043 12.5544 4.58771 12.6576 4.45577C12.7609 4.32382 12.9053 4.23025 13.0679 4.18997L14.1039 3.93197C14.5655 3.81658 14.987 3.57792 15.3235 3.24149C15.6599 2.90507 15.8986 2.48354 16.0139 2.02197L16.2719 0.985969C16.3125 0.823655 16.4063 0.679577 16.5382 0.576655C16.6701 0.473733 16.8326 0.417876 16.9999 0.417969ZM15.4999 13.918C15.6575 13.9179 15.811 13.9674 15.9388 14.0595C16.0666 14.1515 16.1622 14.2815 16.2119 14.431L16.6059 15.614C16.7559 16.061 17.1059 16.413 17.5539 16.562L18.7369 16.957C18.8859 17.007 19.0154 17.1025 19.1071 17.2301C19.1989 17.3577 19.2482 17.5108 19.2482 17.668C19.2482 17.8251 19.1989 17.9783 19.1071 18.1058C19.0154 18.2334 18.8859 18.329 18.7369 18.379L17.5539 18.774C17.1069 18.924 16.7549 19.274 16.6059 19.722L16.2109 20.905C16.1609 21.0539 16.0654 21.1834 15.9378 21.2752C15.8103 21.3669 15.6571 21.4163 15.4999 21.4163C15.3428 21.4163 15.1896 21.3669 15.0621 21.2752C14.9345 21.1834 14.839 21.0539 14.7889 20.905L14.3939 19.722C14.3203 19.5013 14.1963 19.3007 14.0318 19.1362C13.8672 18.9716 13.6667 18.8476 13.4459 18.774L12.2629 18.379C12.114 18.329 11.9845 18.2334 11.8927 18.1058C11.801 17.9783 11.7516 17.8251 11.7516 17.668C11.7516 17.5108 11.801 17.3577 11.8927 17.2301C11.9845 17.1025 12.114 17.007 12.2629 16.957L13.4459 16.562C13.8929 16.412 14.2449 16.062 14.3939 15.614L14.7889 14.431C14.8387 14.2817 14.9341 14.1518 15.0617 14.0598C15.1893 13.9677 15.3426 13.9181 15.4999 13.918Z" fill="#E5B80B"/>
</svg>
