<svg width="24" height="24" viewBox="0 0 24 24" fill="none" xmlns="http://www.w3.org/2000/svg">
<path d="M6.75008 11.9182C6.75008 11.1447 6.92391 10.4109 7.22958 9.74586C7.46758 9.2302 7.42675 8.60487 7.02541 8.20353L4.02008 5.1982C3.54175 4.71986 2.75308 4.74553 2.36691 5.30087C1.01672 7.24304 0.295121 9.55281 0.299581 11.9182C0.299581 14.3729 1.05791 16.6525 2.35525 18.5332C2.74025 19.0897 3.53125 19.1165 4.01075 18.6382L7.02425 15.6329C7.42558 15.2315 7.46758 14.605 7.22958 14.0894C6.92275 13.4244 6.75008 12.6905 6.75008 11.9182ZM12.0001 6.6682C12.7747 6.6682 13.5097 6.84087 14.1747 7.14653C14.6892 7.38453 15.3157 7.34487 15.7159 6.94353L18.6909 3.96853C19.1681 3.49136 19.1436 2.70503 18.5906 2.3177C16.6467 0.964881 14.3334 0.24347 11.9651 0.251532C9.51042 0.251532 7.23891 1.00987 5.36175 2.3072C4.80408 2.6922 4.77725 3.4832 5.25675 3.96387L8.24341 6.9587C8.64708 7.36237 9.27942 7.40203 9.79742 7.15937C10.4866 6.83564 11.2387 6.66793 12.0001 6.6682ZM21.2051 4.8062C21.1556 4.74389 21.0934 4.69284 21.0226 4.65647C20.9518 4.62009 20.8741 4.59922 20.7946 4.59524C20.7151 4.59127 20.6357 4.60428 20.5616 4.63342C20.4876 4.66255 20.4206 4.70714 20.3651 4.7642L16.6096 8.5092C16.5133 8.6098 16.4531 8.73948 16.4383 8.87794C16.4235 9.01641 16.455 9.15588 16.5279 9.27453C17.0002 10.0749 17.2493 10.9872 17.2493 11.9164C17.2493 12.8457 17.0002 13.758 16.5279 14.5584C16.4553 14.6769 16.424 14.8161 16.4387 14.9543C16.4535 15.0926 16.5136 15.222 16.6096 15.3225L20.3651 19.0792C20.4206 19.1363 20.4876 19.1808 20.5616 19.21C20.6357 19.2391 20.7151 19.2521 20.7946 19.2482C20.8741 19.2442 20.9518 19.2233 21.0226 19.1869C21.0934 19.1506 21.1556 19.0995 21.2051 19.0372C22.7826 16.9989 23.6364 14.4933 23.6318 11.9159C23.6365 9.34197 22.7826 6.84002 21.2051 4.8062ZM12.0001 17.1659C11.0705 17.1658 10.158 16.9164 9.35758 16.4437C9.23892 16.3708 9.09946 16.3393 8.96099 16.3541C8.82253 16.3688 8.69285 16.4291 8.59225 16.5254L4.80058 20.3159C4.74359 20.3714 4.69909 20.4385 4.67005 20.5126C4.64101 20.5867 4.62811 20.6661 4.63219 20.7456C4.63628 20.8251 4.65726 20.9028 4.69374 20.9736C4.73022 21.0443 4.78136 21.1064 4.84375 21.1559C6.88174 22.7331 9.38688 23.5869 11.9639 23.5825C14.5452 23.5917 17.0548 22.7334 19.0899 21.1454C19.1519 21.0957 19.2026 21.0334 19.2386 20.9626C19.2747 20.8919 19.2953 20.8142 19.299 20.7349C19.3028 20.6556 19.2896 20.5763 19.2604 20.5025C19.2312 20.4286 19.1866 20.3618 19.1296 20.3065L15.3671 16.5452C15.2671 16.4504 15.1388 16.3909 15.0019 16.376C14.8649 16.361 14.7268 16.3913 14.6087 16.4624C13.816 16.9227 12.9156 17.1654 11.9989 17.1659H12.0001Z" fill="#E5B80B"/>
</svg>
